<?xml version="1.0" encoding="UTF-8"?>
<svg width="4192px" height="2172px" viewBox="0 0 4192 2172" version="1.1" xmlns="http://www.w3.org/2000/svg">
  <style>
    #Fill-59, #Fill-43, #Fill-44 {
    fill: #1D164C;
    }
    @media (prefers-color-scheme: dark) {
    #Fill-59 {
    fill: #fff;
    }
    #Fill-43, #Fill-44 {
    fill: #056DFF
    }
    }
  </style>
  <g id="Page-1" stroke="none" stroke-width="1" fill="none" fill-rule="evenodd">
    <g id="FabricLogoRGB" transform="translate(855.000000, 442.000000)" fill-rule="nonzero">
      <polygon id="Fill-41" fill="#FAD971"
               points="2146.473 601.173 2061.923 369.673 2171.193 329.753 2255.743 561.263"></polygon>
      <polygon id="Fill-42" fill="#FAD971"
               points="2270.931 941.944 2186.381 710.444 2295.651 670.524 2380.201 902.034"></polygon>
      <polygon id="Fill-43" fill="#1D164C"
               points="1675.682 386.886 1591.132 155.386 1700.402 115.466 1784.952 346.976"></polygon>
      <polygon id="Fill-44" fill="#1D164C"
               points="1924.598 1068.429 1840.048 836.929 1949.318 797.019 2033.868 1028.529"></polygon>
      <polygon id="Fill-45" fill="#5EC6E8"
               points="1611.752 410.235 1848.882 323.625 1888.792 432.895 1651.662 519.505"></polygon>
      <polygon id="Fill-46" fill="#5EC6E8"
               points="1736.21 751.007 1973.34 664.407 2013.25 773.677 1776.12 860.277"></polygon>
      <polygon id="Fill-47" fill="#805FFF"
               points="2204.403 958.194 2441.533 871.584 2481.443 980.854 2244.313 1067.464"></polygon>
      <polygon id="Fill-48" fill="#056DFF"
               points="1912.142 496.827 1822.832 252.287 1932.102 212.387 2021.412 456.917"></polygon>
      <polygon id="Fill-49" fill="#056DFF"
               points="2036.6 837.599 1947.29 593.059 2056.56 553.159 2145.87 797.699"></polygon>
      <polygon id="Fill-50" fill="#FF746A"
               points="1441.351 282.54 1354.741 45.41 1464.021 5.5 1550.621 242.64"></polygon>
      <polygon id="Fill-51" fill="#FF746A"
               points="1806.61 1282.638 1720 1045.508 1829.28 1005.598 1915.88 1242.738"></polygon>
      <polygon id="Fill-52" fill="#3CBBB6"
               points="1758.9 275.636 1723.75 179.406 1960.81 92.826 1995.96 189.056"></polygon>
      <polygon id="Fill-53" fill="#3CBBB6"
               points="1883.358 616.407 1848.208 520.177 2085.268 433.597 2120.418 529.837"></polygon>
      <polygon id="Fill-54" fill="#3CBBB6"
               points="2007.816 957.188 1972.666 860.948 2209.726 774.378 2244.876 870.608"></polygon>
      <polygon id="Fill-55" fill="#3CBBB6"
               points="1661.488 1083.673 1626.338 987.443 1863.398 900.863 1898.548 997.093"></polygon>
      <polygon id="Fill-56" fill="#FF69A2"
               points="1168.221 1263.888 1133.071 1167.658 1370.131 1081.078 1405.281 1177.308"></polygon>
      <polygon id="Fill-57" fill="#3CBBB6"
               points="1152.997 495.567 1117.847 399.327 1354.907 312.747 1390.057 408.987"></polygon>
      <polygon id="Fill-58" fill="#FBB570"
               points="313.505 1197.403 278.355 1101.163 515.415 1014.593 550.565 1110.823"></polygon>
      <path
        d="M1207.29,908.519 L1300.62,908.519 L1300.62,568.309 L1207.29,568.309 L1207.29,908.519 Z M841.27,789.709 C834.21,804.489 824.5,815.969 812.15,824.119 C799.79,832.299 785.22,836.369 768.46,836.369 C751.68,836.369 736.91,832.299 724.11,824.119 C711.31,815.969 701.61,804.379 694.99,789.379 C688.37,774.379 685.06,757.169 685.06,737.749 C685.06,718.779 688.37,701.899 694.99,687.109 C701.61,672.339 711.31,660.859 724.11,652.699 C736.91,644.529 751.68,640.449 768.46,640.449 C785.22,640.449 799.79,644.529 812.15,652.699 C824.5,660.859 834.21,672.439 841.27,687.439 C848.32,702.449 851.86,719.449 851.86,738.409 C851.86,757.829 848.32,774.919 841.27,789.709 L841.27,789.709 Z M870.39,585.179 C846.56,571.279 819.43,564.329 788.98,564.329 C761.18,564.329 737.45,570.729 717.83,583.529 C705.81,591.359 695.34,600.699 686.39,611.499 L686.39,445.189 L593.06,445.189 L593.06,908.519 L675.13,908.519 L684.31,862.329 C693.17,873.969 703.67,883.969 715.84,892.299 C735.47,905.759 759.63,912.489 788.32,912.489 C818.76,912.489 845.9,905.319 869.73,890.979 C893.56,876.639 912.42,856.229 926.32,829.749 C940.22,803.269 947.17,772.609 947.17,737.749 C947.17,702.449 940.33,671.669 926.65,645.409 C912.97,619.159 894.22,599.079 870.39,585.179 L870.39,585.179 Z M452.08,768.859 C452.08,784.309 448.77,797.769 442.15,809.229 C435.54,820.709 426.27,829.529 414.35,835.709 C402.44,841.899 388.54,844.969 372.66,844.969 C356.77,844.969 344.3,841.449 335.26,834.389 C326.21,827.329 321.69,817.829 321.69,805.919 C321.69,791.809 327.09,780.879 337.9,773.159 C348.71,765.439 364.05,761.569 383.91,761.569 L452.08,761.569 L452.08,768.859 Z M549.71,825.119 C545.96,821.589 544.09,816.079 544.09,808.569 L544.09,688.759 C544.09,648.179 530.95,617.289 504.7,596.109 C478.44,574.919 441.26,564.329 393.17,564.329 C347.27,564.329 310.44,573.929 282.64,593.129 C254.84,612.319 239.39,639.349 236.3,674.209 L326.99,674.209 C328.31,661.409 334.7,651.259 346.18,643.759 C357.65,636.259 371.99,632.499 389.2,632.499 C408.17,632.499 423.39,637.029 434.87,646.079 C446.34,655.129 452.08,667.369 452.08,682.799 L452.08,700.019 L383.91,700.019 C333.6,700.019 294.98,709.729 268.07,729.139 C241.16,748.569 227.7,776.359 227.7,812.539 C227.7,843.879 239.5,868.369 263.11,886.009 C286.71,903.659 317.49,912.489 355.45,912.489 C386.33,912.489 411.71,905.099 431.56,890.309 C444.56,880.639 456.02,867.919 465.99,852.289 L465.98,852.909 C465.54,870.569 470.17,884.249 479.88,893.959 C489.58,903.659 505.91,908.519 528.86,908.519 L576.52,908.519 L576.52,830.409 L566.59,830.409 C559.08,830.409 553.46,828.649 549.71,825.119 L549.71,825.119 Z M1098.74,587.819 C1088.6,595.919 1079.65,606.359 1071.89,619.129 L1063,568.299 L978.28,568.299 L978.28,908.519 L1071.61,908.519 L1071.61,741.719 C1071.61,714.369 1077.67,692.629 1089.81,676.529 C1101.94,660.419 1121.25,652.369 1147.73,652.369 L1185.45,652.369 L1185.45,568.299 L1169.57,568.299 C1138.68,568.299 1115.07,574.819 1098.74,587.819 L1098.74,587.819 Z M234.98,568.299 L148.93,568.299 L148.93,552.409 C148.93,542.719 151.25,535.539 155.88,530.899 C160.52,526.269 167.9,523.959 178.06,523.959 L234.98,523.959 L234.98,445.189 L158.86,445.189 C124.88,445.189 99.18,453.359 81.75,469.679 C64.32,486.009 55.6,508.959 55.6,538.519 L55.6,568.299 L1.13686838e-12,568.299 L1.13686838e-12,647.059 L55.6,647.059 L55.6,908.519 L148.93,908.519 L148.93,647.059 L234.98,647.059 L234.98,568.299 Z M1576.63,779.449 C1573.09,797.099 1565.37,810.999 1553.46,821.139 C1541.55,831.299 1526.33,836.369 1507.79,836.369 C1491.9,836.369 1477.89,832.179 1465.76,823.789 C1453.62,815.409 1444.13,803.829 1437.3,789.039 C1430.45,774.259 1427.04,757.379 1427.04,738.409 C1427.04,718.999 1430.45,701.999 1437.3,687.439 C1444.13,672.879 1453.62,661.529 1465.76,653.349 C1477.89,645.199 1491.9,641.109 1507.79,641.109 C1525,641.109 1539.56,645.859 1551.47,655.339 C1563.39,664.839 1571.55,678.179 1575.97,695.379 L1672.6,695.379 C1665.99,654.349 1648.33,622.249 1619.65,599.079 C1590.96,575.909 1553.9,564.329 1508.45,564.329 C1473.14,564.329 1442.15,571.509 1415.46,585.839 C1388.75,600.189 1368.24,620.489 1353.9,646.739 C1339.55,672.999 1332.39,703.559 1332.39,738.409 C1332.39,772.819 1339.55,803.269 1353.9,829.749 C1368.24,856.229 1388.65,876.639 1415.12,890.979 C1441.6,905.319 1472.48,912.489 1507.79,912.489 C1553.68,912.489 1591.08,900.689 1619.98,877.069 C1648.88,853.469 1666.64,820.929 1673.27,779.449 L1576.63,779.449 Z"
        id="Fill-59"></path>
    </g>
  </g>
</svg>
